<?xml version="1.0" encoding="utf-8"?>
<!-- Generator: Adobe Illustrator 16.0.0, SVG Export Plug-In . SVG Version: 6.00 Build 0)  -->
<!DOCTYPE svg PUBLIC "-//W3C//DTD SVG 1.1//EN" "http://www.w3.org/Graphics/SVG/1.1/DTD/svg11.dtd">
<svg version="1.1" xmlns="http://www.w3.org/2000/svg" xmlns:xlink="http://www.w3.org/1999/xlink" x="0px" y="0px" width="1024px"
	 height="1024px" viewBox="0 0 1024 1024" enable-background="new 0 0 1024 1024" xml:space="preserve">
<g id="Layer_2">
	<path fill="#F7A499" d="M92.111,580.089c0,0,60.769-54.66,139.493-11.999c0,0-58.738,330.48,300.205,318.281
		c0,0,277.124,13.34,257.768-312.281c0,0,116.439-43.629,149.992,5.999c0,0,84.104,396.867-424.371,418.634
		c0,0-238.752-6.964-339.416-122.76C75.118,760.167,81.786,679.344,92.111,580.089z"/>
	<path fill="#F7A499" d="M90.61,467.961c0,0,60.769,54.66,139.493,11.999c0,0-58.738-330.48,300.204-318.281
		c0,0,277.125-13.34,257.768,312.281c0,0,116.439,43.629,149.992-5.999c0,0,84.104-396.867-424.371-418.634
		c0,0-238.752,6.964-339.415,122.76C73.617,287.883,80.285,368.706,90.61,467.961z"/>
	<path fill="#F7996A" d="M374.592,449.09c0,0,53.997-77.996,118.494,0c0,0,30,41.998,71.997,0c0,0,40.498-65.997,97.495,0
		c56.997,65.998-6,220.489-118.494,221.989C431.589,672.579,308.596,545.086,374.592,449.09z"/>
	<path fill="#EA7068" d="M122.69,613.458c0,0,3.772-57.66,82.496-14.999c0,0-36.917,340.683,322.026,328.483
		c0,0,277.203-8.299,299.234-316.484c0,0,60.651-34.628,94.204,15c0,0-25.499,356.058-393.438,354.63
		c0,0-171.148,18.635-305.527-102.643C107.781,774.646,112.365,712.713,122.69,613.458z"/>
	<path fill="#EA7068" d="M123.479,441.252c0,0,3.772,57.66,82.496,14.999c0,0-36.917-340.683,322.026-328.483
		c0,0,277.203,8.299,299.234,316.484c0,0,60.651,34.628,94.204-15c0,0-25.499-356.058-393.438-354.63
		c0,0-171.148-18.635-305.527,102.643C108.569,280.064,113.153,341.998,123.479,441.252z"/>
</g>
<g id="Texts">
</g>
<g id="lower">
	<g id="second_x5F_molar" display="none">
		<path display="inline" fill="#FFFFFF" stroke="#6D6E71" stroke-width="6" stroke-miterlimit="10" d="M94.339,544.634
			c0,0,71.151-78.629,128.074,7.978c0,0,10.947,51.279-19.704,76.351c0,0-69.781,36.467-101.117-12.534
			C101.591,616.428,83.393,584.519,94.339,544.634z"/>
		<path display="inline" fill="none" stroke="#000000" stroke-width="4" stroke-miterlimit="10" d="M144.913,618.644
			c0,0,7.783,5.188,20.756,2.593"/>
		<polyline display="inline" fill="none" stroke="#808285" stroke-width="4" stroke-miterlimit="10" points="128.047,543.401 
			124.155,568.048 151.397,549.887 160.479,565.454 176.046,547.292 177.343,568.048 191.614,557.671 		"/>
		
			<line display="inline" fill="none" stroke="#000000" stroke-width="4" stroke-miterlimit="10" x1="105.994" y1="583.616" x2="143.615" y2="588.807"/>
		
			<line display="inline" fill="none" stroke="#000000" stroke-width="4" stroke-miterlimit="10" x1="169.56" y1="588.807" x2="201.992" y2="579.725"/>
		
			<line display="inline" fill="none" stroke="#000000" stroke-width="4" stroke-miterlimit="10" x1="121.561" y1="599.184" x2="135.831" y2="599.184"/>
		
			<line display="inline" fill="none" stroke="#000000" stroke-width="4" stroke-miterlimit="10" x1="176.044" y1="599.834" x2="190.315" y2="599.834"/>
		<path display="inline" fill="#FFFFFF" stroke="#6D6E71" stroke-width="6" stroke-miterlimit="10" d="M799.869,569.17
			c0,0-7.703-55.404,68.204-50.972c0,0,79.32,8.866,66.004,66.485c0,0-1.099,49.864-41.801,53.188c0,0-55.005,19.696-85.807-33.368
			L799.869,569.17z"/>
		<g display="inline">
			<path stroke="#000000" stroke-miterlimit="10" d="M852.147,578.949c0,2.212-1.797,4.008-4.014,4.008
				c-2.212,0-4.009-1.796-4.009-4.008c0-2.216,1.797-4.011,4.009-4.011C850.351,574.938,852.147,576.733,852.147,578.949z"/>
			<circle fill="none" stroke="#000000" stroke-miterlimit="10" cx="848.135" cy="578.946" r="6.973"/>
		</g>
		<g display="inline">
			<path stroke="#000000" stroke-miterlimit="10" d="M892.604,578.22c0,2.212-1.797,4.008-4.013,4.008
				c-2.212,0-4.01-1.796-4.01-4.008c0-2.215,1.798-4.012,4.01-4.012C890.808,574.208,892.604,576.005,892.604,578.22z"/>
			<circle fill="none" stroke="#000000" stroke-miterlimit="10" cx="888.593" cy="578.218" r="6.973"/>
		</g>
		<path display="inline" fill="none" stroke="#000000" stroke-width="4" stroke-miterlimit="10" d="M859.131,571.012
			c0,0-12.575-12.114-24.566-0.465"/>
		<path display="inline" fill="none" stroke="#000000" stroke-width="4" stroke-miterlimit="10" d="M902.021,569.42
			c0,0-12.451-8.329-24.324-0.321"/>
		<path display="inline" fill="#F15A29" d="M848.67,597.635c0,2.602-2.107,4.707-4.707,4.707h-13.45
			c-2.601,0-4.707-2.105-4.707-4.707l0,0c0-2.6,2.106-4.707,4.707-4.707h13.45C846.563,592.928,848.67,595.035,848.67,597.635
			L848.67,597.635z"/>
		<path display="inline" fill="#F15A29" d="M909.432,598c0,2.601-2.107,4.707-4.707,4.707h-13.45c-2.6,0-4.707-2.106-4.707-4.707
			l0,0c0-2.6,2.107-4.707,4.707-4.707h13.45C907.324,593.293,909.432,595.4,909.432,598L909.432,598z"/>
		
			<ellipse transform="matrix(0.9999 -0.0135 0.0135 0.9999 -8.1578 11.7419)" display="inline" fill="#BE1E2D" cx="868.324" cy="611.988" rx="10.703" ry="16.54"/>
		<path display="inline" fill="#FFFFFF" d="M860.596,604.144c0,0,6.918-16.309,15.567-0.209c0,0,0.726,5.827-6.089,5.596
			S861.464,608.349,860.596,604.144z"/>
		<path display="inline" fill="none" stroke="#808285" stroke-width="4" stroke-miterlimit="10" d="M838.087,533.302
			c0,0,22.056,6.488,32.433,1.299c0,0,10.378,16.865,22.053,1.297c0,0,11.676,18.162,15.567,6.486"/>
		<g display="inline">
			<text transform="matrix(1 -0.0031 0.0031 1 1264.375 661.7285)" fill="#58595B" font-family="'Arial-BoldMT'" font-size="60">23-31 mo.</text>
		</g>
	</g>
	<g id="first_x5F_molar" display="none">
		<path display="inline" fill="#FFFFFF" stroke="#6D6E71" stroke-width="6" stroke-miterlimit="10" d="M111.983,661.199
			c0,0,44.11-35.917,95.999,7.982c0,0,22.051,59.86,9.08,89.127c0,0-45.404,47.89-99.889,13.303c0,0-22.054-15.923-14.27-55.851
			C102.904,715.761,104.2,681.153,111.983,661.199z"/>
		<path display="inline" fill="none" stroke="#000000" stroke-width="4" stroke-miterlimit="10" d="M130.287,708.404
			c0,0,8.032,9.732,23.713,2.596c0,0,9.944-3.243,3.06,6.486c0,0-14.151,22.055-29.833-4.54
			C127.227,712.946,124.236,704.838,130.287,708.404z"/>
		<path display="inline" fill="none" stroke="#000000" stroke-width="4" stroke-miterlimit="10" d="M200.125,709.055
			c0,0-8.633,9.082-24.314,1.945c0,0-9.944-3.243-3.059,6.486c0,0,12.584,23.756,28.266-2.839
			C201.018,714.647,203.572,706.681,200.125,709.055z"/>
		<path display="inline" fill="none" stroke="#000000" stroke-width="4" stroke-miterlimit="10" d="M141.1,747.323
			c0,0,12.323,14.919,22.702-0.648c0,0,18.811,15.564,20.107-0.65"/>
		<path display="inline" stroke="#000000" stroke-miterlimit="10" d="M149.004,717.486c0,2.212-1.798,4.008-4.014,4.008
			c-2.212,0-4.009-1.796-4.009-4.008c0-2.217,1.797-4.012,4.009-4.012C147.206,713.475,149.004,715.27,149.004,717.486z"/>
		<path display="inline" stroke="#000000" stroke-miterlimit="10" d="M190.517,718.784c0,2.212-1.797,4.007-4.014,4.007
			c-2.211,0-4.009-1.795-4.009-4.007c0-2.216,1.798-4.012,4.009-4.012C188.719,714.772,190.517,716.568,190.517,718.784z"/>
		<path display="inline" fill="none" stroke="#808285" stroke-width="4" stroke-miterlimit="10" d="M135.263,675.972
			c0,0,19.459,1.299,27.243-3.892c0,0,16.864,7.786,23.351,1.299"/>
		<path display="inline" fill="#FFFFFF" stroke="#6D6E71" stroke-width="6" stroke-miterlimit="10" d="M917.057,707.227
			c0,0,7.783-58.377-57.078-59.676c0,0-49.296-6.485-53.188,59.676c0,0-6.485,57.08,0,66.16c0,0,10.378,11.673,37.62,16.863
			c0,0,60.906,5.192,72.939-36.322L917.057,707.227z"/>
		<path display="inline" fill="none" stroke="#808285" stroke-width="4" stroke-miterlimit="10" d="M839.717,688.871
			c0,0,14.271,7.785,22.703-0.648c8.432-8.434,0.649-9.729-3.892-3.243c-4.542,6.485,4.539,12.325,10.377,9.081
			c5.838-3.243,16.215-4.542,16.215-9.081"/>
		<path display="inline" fill="#FFFFFF" stroke="#000000" stroke-width="4" stroke-miterlimit="10" d="M870.528,716
			c0,0,14.594-6.811,32.107,11.675"/>
		<path display="inline" fill="#FFFFFF" stroke="#000000" stroke-width="4" stroke-miterlimit="10" d="M849.123,716.974
			c0,0-17.513-4.865-26.27,7.782"/>
		<circle display="inline" fill="#F9C3D2" cx="895.707" cy="747.25" r="8.757"/>
		<circle display="inline" fill="#F9C3D2" cx="825.654" cy="744.331" r="8.757"/>
		<path display="inline" fill="none" stroke="#000000" stroke-width="4" stroke-miterlimit="10" d="M876.248,755.033
			c0,0-15.566,20.433-27.242,0"/>
		<path display="inline" stroke="#000000" stroke-miterlimit="10" d="M876.449,731.566c0,2.212,1.798,4.009,4.014,4.009
			c2.212,0,4.01-1.797,4.01-4.009c0-2.216-1.798-4.011-4.01-4.011C878.247,727.556,876.449,729.351,876.449,731.566z"/>
		<path display="inline" stroke="#000000" stroke-miterlimit="10" d="M838.182,731.566c0,2.212,1.798,4.009,4.014,4.009
			c2.212,0,4.01-1.797,4.01-4.009c0-2.216-1.798-4.011-4.01-4.011C839.979,727.556,838.182,729.351,838.182,731.566z"/>
		<g display="inline">
			<text transform="matrix(1 0.0015 -0.0015 1 1267.1992 769.5127)" fill="#58595B" font-family="'Arial-BoldMT'" font-size="60">14-18 mo.</text>
		</g>
	</g>
	<g id="canine" display="none">
		<path display="inline" fill="#FFFFFF" stroke="#6D6E71" stroke-width="6" stroke-miterlimit="10" d="M174.218,847.976
			c-0.363-5.338,2.593-59.673,49.295-81.729c0,0,51.891,1.299,55.783,81.729c0,0,6.486,44.108-52.539,50.593
			C226.757,898.568,178.109,905.057,174.218,847.976z"/>
		<g display="inline">
			<path fill="none" stroke="#000000" stroke-width="4" stroke-miterlimit="10" d="M190.772,852.922c0,0,22.702-11.676,33.081,0.648
				"/>
			<path fill="#FFFFFF" stroke="#000000" stroke-width="4" stroke-miterlimit="10" d="M197.908,850.003
				c0,0-5.026-30.161,10.865-31.46c0,0,15.08-3.243,10.054,31.136C218.826,849.679,209.826,845.384,197.908,850.003z"/>
			<circle stroke="#000000" stroke-width="4" stroke-miterlimit="10" cx="210.555" cy="836.381" r="4.011"/>
		</g>
		<g display="inline">
			<path fill="none" stroke="#000000" stroke-width="4" stroke-miterlimit="10" d="M264.394,851.951c0,0-22.702-11.676-33.081,0.647
				"/>
			<path fill="#FFFFFF" stroke="#000000" stroke-width="4" stroke-miterlimit="10" d="M257.259,849.032
				c0,0,5.027-30.162-10.865-31.459c0,0-15.08-3.245-10.054,31.134C236.341,848.707,245.341,844.412,257.259,849.032z"/>
			<circle stroke="#000000" stroke-width="4" stroke-miterlimit="10" cx="244.612" cy="835.41" r="4.011"/>
		</g>
		
			<ellipse transform="matrix(0.9965 -0.0834 0.0834 0.9965 -72.0825 22.0706)" display="inline" fill="#EA7E73" cx="227.988" cy="873.354" rx="8.432" ry="13.296"/>
		<path display="inline" fill="#FFFFFF" stroke="#6D6E71" stroke-width="6" stroke-miterlimit="10" d="M735.164,831.65
			c0,0,2.594-46.702,36.973-58.377c34.378-11.676,57.728,36.324,61.62,51.891c3.892,15.567-3.893,76.539-20.757,77.836
			c0,0-42.971,2.595-59.999-2.757C753.001,900.243,731.11,902.188,735.164,831.65z"/>
		<polyline display="inline" fill="none" stroke="#000000" stroke-width="4" stroke-miterlimit="10" points="817.055,835.381 
			792.731,845.109 814.297,851.596 		"/>
		<polyline display="inline" fill="none" stroke="#000000" stroke-width="4" stroke-miterlimit="10" points="753.327,835.381 
			777.651,845.109 756.084,851.596 		"/>
		<path display="inline" fill="#BE1E2D" d="M755.313,857.919l63.242,0.974c0,0-5.838,36-36.972,34.54
			C781.583,893.433,756.771,891,755.313,857.919z"/>
		<rect x="761.272" y="861.567" display="inline" fill="#FFFFFF" width="51.566" height="7.298"/>
		<path display="inline" fill="#EF8031" d="M777.478,886.771c0,0-1.943-9.403,8.434-10.702c0,0,6.231,0.133,6.656,10.714
			c0,0-10.183-1.824-15.09,0.122"/>
		<g display="inline">
			<text transform="matrix(1 -0.0097 0.0097 1 1247.2051 921.9785)" fill="#58595B" font-family="'Arial-BoldMT'" font-size="60">17-23 mo.</text>
		</g>
	</g>
	<g id="lateral_x5F_incisor" display="none">
		<path display="inline" fill="#FFFFFF" stroke="#6D6E71" stroke-width="6" stroke-miterlimit="10" d="M285.98,836.484
			c0,0,7.784-17.995,55.784-16.781c0,0,42.811-7.867,46.703,16.781c3.892,24.65,0,5.19,0,5.19s12.973,97.295-37.622,103.781
			c0,0-45.405,16.864-64.865-45.404V836.484z"/>
		<path display="inline" fill="none" stroke="#000000" stroke-width="4" stroke-miterlimit="10" d="M371.107,885.3
			c0,0-14.107-17.026-28.215,2.919"/>
		<path display="inline" fill="none" stroke="#000000" stroke-width="4" stroke-miterlimit="10" d="M332.676,887.246
			c0,0-14.107-17.027-28.215,2.918"/>
		<path display="inline" fill="none" stroke="#000000" stroke-width="4" stroke-miterlimit="10" d="M314.19,907.191
			c0,0,24.828,25.297,51.566,0.973"/>
		<path display="inline" fill="#F190AC" d="M332.84,917.717c0,0,1.322,12.779,12.101,11.045c10.777-1.735,6.427-10.887,6.239-11.518
			C350.989,916.612,343.996,920.4,332.84,917.717z"/>
		<path display="inline" fill="none" stroke="#000000" stroke-miterlimit="10" d="M343.378,919.84c0,0,2.92,0.646,1.622,6.16"/>
		<ellipse display="inline" fill="#E6E7E8" cx="705.258" cy="898.328" rx="1.298" ry="1.622"/>
		<path display="inline" fill="#FFFFFF" stroke="#6D6E71" stroke-width="6" stroke-miterlimit="10" d="M623.758,871.123
			c0,0-3.891-37.455,9.081-46.618c0,0,63.567-3.975,81.729,6.403c18.16,10.378,10.377,31.135,10.377,46.702
			c0,15.566-12.972,62.765-33.729,76.538c0,0-46.701,5.188-54.485-15.567C636.73,938.581,623.684,895.611,623.758,871.123z"/>
		<circle display="inline" cx="656.934" cy="889.568" r="14.595"/>
		<circle display="inline" cx="694.878" cy="893.46" r="14.595"/>
		<path display="inline" fill="none" stroke="#000000" stroke-miterlimit="10" d="M669.259,886.326c0,0,8.433-8.106,15.892,2.271"/>
		<path display="inline" fill="none" stroke="#F1F2F2" stroke-width="3" stroke-miterlimit="10" d="M656.935,881.137
			c0,0,10.376-2.269,10.053,11.027"/>
		<path display="inline" fill="none" stroke="#F1F2F2" stroke-width="3" stroke-miterlimit="10" d="M695.53,884.056
			c0,0,10.376-2.269,10.053,11.027"/>
		<ellipse display="inline" fill="#E6E7E8" cx="666.339" cy="895.408" rx="1.298" ry="1.62"/>
		<path display="inline" fill="none" stroke="#000000" stroke-width="4" stroke-miterlimit="10" d="M672.297,913.405
			c0,0,8.107-10.377,12.648,0.325c0,0,0.65,3.893-3.567,4.865c0,0,7.784,7.458,1.622,9.404c0,0-5.514,2.595-9.73-4.217"/>
		<g display="inline">
			<text transform="matrix(1 -0.0012 0.0012 1 1119.5352 1033.8652)" fill="#58595B" font-family="'Arial-BoldMT'" font-size="60">10-16 mo.</text>
		</g>
	</g>
	<g id="central_x5F_incisor">
		<path fill="#FFFFFF" stroke="#6D6E71" stroke-width="6" stroke-miterlimit="10" d="M395.327,882.72
			c0,0-1.296-20.754,50.593-22.053h36.323c0,0,18.162-6.485,18.162,31.136c0,0-3.892,66.16-12.973,77.836
			c-9.081,11.675-41.513,28.54-66.161,0C421.271,969.639,407.003,978.717,395.327,882.72z"/>
		<circle fill="#F9C3D2" cx="416" cy="921.09" r="8.756"/>
		<circle fill="#F9C3D2" cx="485.052" cy="918.171" r="8.756"/>
		<circle stroke="#000000" stroke-miterlimit="10" cx="436.209" cy="908.926" r="4.011"/>
		<circle stroke="#000000" stroke-miterlimit="10" cx="465.178" cy="907.855" r="4.012"/>
		<path fill="#BE1E2D" d="M477.092,941.315c0,0,7.972-16.603-8.021-14.463c0,0-18.592,7.587-34.807,0.972
			c0,0-13.621-0.778-5.188,13.491c0,0,10.215,14.271,28.459,14.271C457.535,955.587,471.272,954.938,477.092,941.315z"/>
		<path fill="#FFFFFF" d="M445.837,934.063c0,0,5.838,0.65,12.973-0.647c7.136-1.299,3.243,7.784-2.593,9.729
			c0,0-4.378,1.458-7.703-1.461C448.514,941.684,440.649,934.388,445.837,934.063z"/>
		<path fill="#FFFFFF" stroke="#6D6E71" stroke-width="6" stroke-miterlimit="10" d="M515.109,897.83c0,0-3.313-48,31.715-38.919
			c0,0,40.213-3.585,57.08-1.144c0,0,23.35-1.45,7.781,76.387c0,0-2.592,40.213-37.618,49.295c0,0-16.865,10.378-36.324-16.865
			C537.743,966.584,526.206,961.396,515.109,897.83z"/>
		<path fill="none" stroke="#000000" stroke-width="4" stroke-miterlimit="10" d="M541.543,936.807c0,0,26.269,34.54,51.565-0.486"
			/>
		<path stroke="#000000" stroke-miterlimit="10" d="M552.202,915.565c0,2.212-1.797,4.008-4.014,4.008
			c-2.212,0-4.009-1.796-4.009-4.008c0-2.217,1.797-4.013,4.009-4.013C550.405,911.553,552.202,913.349,552.202,915.565z"/>
		<path stroke="#000000" stroke-miterlimit="10" d="M590.47,915.565c0,2.212-1.797,4.008-4.014,4.008
			c-2.212,0-4.009-1.796-4.009-4.008c0-2.217,1.797-4.013,4.009-4.013C588.673,911.553,590.47,913.349,590.47,915.565z"/>
		<g>
			
				<text transform="matrix(1 -6.096810e-005 6.096810e-005 1 1020.376 1111.7891)" fill="#58595B" font-family="'Arial-BoldMT'" font-size="60">6-8 mo.</text>
		</g>
	</g>
</g>
<g id="upper">
	<g id="second_x5F_molar_1_" display="none">
		<path display="inline" fill="#FFFFFF" stroke="#6D6E71" stroke-width="6" stroke-miterlimit="10" d="M97.834,392.997
			c0,0,71.151-75.909,128.074,7.701c0,0,10.947,49.506-19.704,73.71c0,0-69.781,35.206-101.117-12.101
			C105.087,462.307,86.888,431.502,97.834,392.997z"/>
		<path display="inline" fill="#FFFFFF" stroke="#6D6E71" stroke-width="6" stroke-miterlimit="10" d="M803.864,411.166
			c0,0-7.703-55.404,68.204-50.972c0,0,79.32,8.866,66.004,66.485c0,0-1.099,49.864-41.801,53.188c0,0-55.005,19.696-85.807-33.368
			L803.864,411.166z"/>
		<path display="inline" fill="none" stroke="#808285" stroke-width="4" stroke-miterlimit="10" d="M831.076,409.097
			c0,0,22.498-12,31.498-19.499l-7.5,16.499c0,0,23.999-4.499,29.998-13.499l-4.499,17.999c0,0,19.499-7.5,23.999-19.499l3,22.499
			c0,0,10.5-10.5,11.999-16.499"/>
		<path display="inline" fill="none" stroke="#000000" stroke-width="4" stroke-miterlimit="10" d="M835.575,418.596
			c0,0,4.048,25.5,36.425,7.5"/>
		<path display="inline" fill="none" stroke="#000000" stroke-width="4" stroke-miterlimit="10" d="M885.056,428.093
			c0,0,3.883,25.5,34.944,7.5"/>
		<ellipse display="inline" cx="869.5" cy="455.5" rx="3.5" ry="4.5"/>
		<path display="inline" fill="#F9C3D2" d="M857.308,445.466c-0.582,2.536-3.107,4.116-5.641,3.534l-13.109-3.009
			c-2.534-0.582-4.116-3.105-3.534-5.641l0,0c0.582-2.534,3.106-4.116,5.641-3.534l13.109,3.009
			C856.307,440.407,857.89,442.932,857.308,445.466L857.308,445.466z"/>
		<path display="inline" fill="#F9C3D2" d="M908.49,456.567c-0.476,2.557-2.934,4.242-5.489,3.766l-13.223-2.463
			c-2.556-0.476-4.242-2.932-3.766-5.489l0,0c0.476-2.556,2.934-4.242,5.489-3.766l13.223,2.463
			C907.28,451.554,908.966,454.012,908.49,456.567L908.49,456.567z"/>
		<path display="inline" fill="none" stroke="#808285" stroke-width="4" stroke-miterlimit="10" d="M123.61,399.596
			c0,0,38.998-26.999,70.496,7.5"/>
		<circle display="inline" fill="#F15A29" cx="191.697" cy="440.094" r="8.757"/>
		<circle display="inline" fill="#F15A29" cx="125.644" cy="443.175" r="8.757"/>
		<path display="inline" stroke="#000000" stroke-miterlimit="10" d="M170.986,426.325c0,2.212,1.798,4.009,4.014,4.009
			c2.212,0,4.01-1.797,4.01-4.009c0-2.216-1.798-4.011-4.01-4.011C172.784,422.314,170.986,424.109,170.986,426.325z"/>
		<path display="inline" stroke="#000000" stroke-miterlimit="10" d="M138.32,426.991c0,2.212,1.798,4.009,4.014,4.009
			c2.212,0,4.01-1.797,4.01-4.009c0-2.216-1.798-4.011-4.01-4.011C140.118,422.98,138.32,424.775,138.32,426.991z"/>
		<path display="inline" fill="none" stroke="#000000" stroke-width="4" stroke-miterlimit="10" d="M145,451.667
			c0,0,14.667,42,30.667-1.333"/>
		
			<text transform="matrix(1 0.0052 -0.0052 1 1350.8789 475.6489)" display="inline" fill="#58595B" font-family="'Arial-BoldMT'" font-size="60">25-33 mo.</text>
	</g>
	<g id="first_x5F_molar_1_" display="none">
		<path display="inline" fill="#FFFFFF" stroke="#6D6E71" stroke-width="6" stroke-miterlimit="10" d="M904.048,280.66
			c0,0,7.783-51.423-57.078-52.567c0,0-49.296-5.712-53.188,52.567c0,0-6.485,50.281,0,58.28c0,0,10.378,10.282,37.62,14.854
			c0,0,60.906,4.574,72.939-31.995L904.048,280.66z"/>
		<path display="inline" fill="#FFFFFF" stroke="#6D6E71" stroke-width="6" stroke-miterlimit="10" d="M122.475,236.112
			c0,0,44.11-34.342,95.999,7.632c0,0,22.051,57.235,9.08,85.218c0,0-45.404,45.79-99.889,12.72c0,0-22.054-15.225-14.27-53.401
			C113.395,288.28,114.691,255.19,122.475,236.112z"/>
		<path display="inline" fill="none" stroke="#808285" stroke-width="4" stroke-miterlimit="10" d="M145,243.333
			c13.667,1,17.333,9,17.333,9s3.667-5.667,1-11.333"/>
		<path display="inline" fill="#FFFFFF" stroke="#6D6E71" stroke-width="6" stroke-miterlimit="10" d="M172.667,239
			c1,6-3,12.333-3,12.333s12.667-8,17.333-6.333"/>
		<path display="inline" fill="none" stroke="#000000" stroke-width="4" stroke-miterlimit="10" d="M128,279.414
			c21.668-5.25,34.667,9.452,34.667,9.452s-20.584-1.05-26.001,6.302"/>
		<path display="inline" fill="none" stroke="#000000" stroke-width="4" stroke-miterlimit="10" d="M209.395,291.951
			c0,0-22.703-11.676-33.081,0.647"/>
		<path display="inline" fill="#FFFFFF" stroke="#000000" stroke-width="4" stroke-miterlimit="10" d="M202.26,289.032
			c0,0,5.026-17.778-10.865-18.542c0,0-15.08-1.913-10.054,18.351C181.341,288.84,190.341,286.309,202.26,289.032z"/>
		<circle display="inline" stroke="#000000" stroke-width="4" stroke-miterlimit="10" cx="190" cy="281.001" r="3.261"/>
		<path display="inline" fill="none" stroke="#000000" stroke-width="4" stroke-miterlimit="10" d="M173.25,324
			c0,0,27.25,0,27.25-18"/>
		<path display="inline" fill="none" stroke="#808285" stroke-width="4" stroke-miterlimit="10" d="M808,268c0,0,11.5-21,25.5-3
			s26-7.5,26-7.5s10-13,13.5,3.5s12-1,13.5-3.5"/>
		<path display="inline" fill="none" stroke="#000000" stroke-width="4" stroke-miterlimit="10" d="M829.5,320.5c0,0,4-6,7-3.5
			s23.5,28.5,39-0.5c0,0,5-4.5,7,0"/>
		<path display="inline" stroke="#000000" stroke-miterlimit="10" d="M870.744,299c0,2.212,1.798,4.009,4.014,4.009
			c2.212,0,4.01-1.797,4.01-4.009c0-2.216-1.798-4.011-4.01-4.011C872.542,294.989,870.744,296.784,870.744,299z"/>
		<path display="inline" stroke="#000000" stroke-miterlimit="10" d="M832.477,299c0,2.212,1.798,4.009,4.014,4.009
			c2.212,0,4.01-1.797,4.01-4.009c0-2.216-1.798-4.011-4.01-4.011C834.274,294.989,832.477,296.784,832.477,299z"/>
		
			<line display="inline" fill="none" stroke="#000000" stroke-width="4" stroke-miterlimit="10" x1="817" y1="288" x2="845.5" y2="288"/>
		
			<line display="inline" fill="none" stroke="#000000" stroke-width="4" stroke-miterlimit="10" x1="859.5" y1="288" x2="888" y2="288"/>
		
			<text transform="matrix(1 0.0062 -0.0062 1 1389.5371 370.7368)" display="inline" fill="#58595B" font-family="'Arial-BoldMT'" font-size="60">13-19 mo.</text>
	</g>
	<g id="canine_1_" display="none">
		<path display="inline" fill="#FFFFFF" stroke="#6D6E71" stroke-width="6" stroke-miterlimit="10" d="M190.708,181.512
			c-0.363-5.338,2.593-59.673,49.295-81.729c0,0,51.891,1.299,55.783,81.729c0,0,6.486,44.108-52.539,50.593
			C243.247,232.105,194.599,238.593,190.708,181.512z"/>
		<path display="inline" fill="#FFFFFF" stroke="#6D6E71" stroke-width="6" stroke-miterlimit="10" d="M719.157,164.186
			c0,0,2.594-46.702,36.973-58.377c34.378-11.676,57.728,36.324,61.62,51.891c3.892,15.567-3.893,76.539-20.757,77.836
			c0,0-42.971,2.595-59.999-2.757C736.994,232.779,715.104,234.724,719.157,164.186z"/>
		<path display="inline" fill="none" stroke="#000000" stroke-width="4" stroke-miterlimit="10" d="M275.126,187.312
			c0,0-14.107-17.026-28.215,2.919"/>
		<path display="inline" fill="none" stroke="#000000" stroke-width="4" stroke-miterlimit="10" d="M236.694,189.258
			c0,0-14.107-17.027-28.215,2.918"/>
		<ellipse display="inline" cx="243.5" cy="208" rx="3.5" ry="4.5"/>
		
			<ellipse transform="matrix(0.9999 -0.0135 0.0135 0.9999 -2.7677 10.3528)" display="inline" fill="#BE1E2D" cx="767.809" cy="210.814" rx="10.703" ry="16.54"/>
		<path display="inline" fill="#FFFFFF" d="M760.081,202.97c0,0,6.918-16.309,15.567-0.209c0,0,0.726,5.827-6.089,5.596
			S760.949,207.175,760.081,202.97z"/>
		<path display="inline" fill="none" stroke="#000000" stroke-width="4" stroke-miterlimit="10" d="M729.247,187.959
			c0,0,10.389-28.28,32.318-4.714c0,0,3.463,5.008-3.174,3.241c0,0-14.572-6.494-24.527,0.883
			C733.864,187.37,728.382,193.556,729.247,187.959z"/>
		<path display="inline" fill="none" stroke="#000000" stroke-width="4" stroke-miterlimit="10" d="M772.749,184.292
			c0,0,10.09-28.28,31.392-4.714c0,0,3.363,5.008-3.083,3.241c0,0-9.238-6.494-23.824,0.883
			C777.233,183.703,771.909,189.89,772.749,184.292z"/>
		<circle display="inline" stroke="#000000" stroke-miterlimit="10" cx="744.517" cy="177.898" r="4.011"/>
		<circle display="inline" stroke="#000000" stroke-miterlimit="10" cx="789.485" cy="173.828" r="4.012"/>
		<path display="inline" fill="#F9C3D2" d="M756.155,197.461c0,2.602-2.107,4.707-4.707,4.707h-13.45
			c-2.601,0-4.707-2.105-4.707-4.707l0,0c0-2.6,2.106-4.707,4.707-4.707h13.45C754.048,192.754,756.155,194.861,756.155,197.461
			L756.155,197.461z"/>
		<path display="inline" fill="#F9C3D2" d="M803.417,193.826c0,2.601-2.107,4.707-4.707,4.707h-13.449
			c-2.6,0-4.707-2.106-4.707-4.707l0,0c0-2.6,2.107-4.707,4.707-4.707h13.449C801.31,189.119,803.417,191.227,803.417,193.826
			L803.417,193.826z"/>
		
			<text transform="matrix(1 -9.641349e-004 9.641349e-004 1 1496.7852 244.7813)" display="inline" fill="#58595B" font-family="'Arial-BoldMT'" font-size="60">16-22 mo.</text>
	</g>
	<g id="lateral_x5F_incisor_1_">
		<path fill="#FFFFFF" stroke="#6D6E71" stroke-width="6" stroke-miterlimit="10" d="M290.471,61.529
			c0,0,7.784-17.995,55.784-16.781c0,0,42.811-7.867,46.703,16.781c3.892,24.65,0,5.19,0,5.19s12.973,97.295-37.622,103.781
			c0,0-45.405,16.864-64.865-45.404V61.529z"/>
		<path fill="#FFFFFF" stroke="#6D6E71" stroke-width="6" stroke-miterlimit="10" d="M625.251,98.167c0,0-3.891-37.455,9.081-46.618
			c0,0,63.567-3.975,81.729,6.403c18.16,10.378,10.377,31.135,10.377,46.702c0,15.566-12.972,62.765-33.729,76.538
			c0,0-46.701,5.188-54.485-15.567C638.224,165.625,625.177,122.656,625.251,98.167z"/>
		<path fill="none" stroke="#000000" stroke-width="4" stroke-miterlimit="10" d="M704.126,123.312c0,0-14.107-17.026-28.215,2.919"
			/>
		<path fill="none" stroke="#000000" stroke-width="4" stroke-miterlimit="10" d="M665.694,125.258c0,0-14.107-17.027-28.215,2.918"
			/>
		<path fill="none" stroke="#000000" stroke-width="4" stroke-miterlimit="10" d="M647.543,140.807c0,0,26.269,34.54,51.565-0.486"
			/>
		<path fill="#BE1E2D" d="M312.815,126.933l63.242,0.974c0,0-5.838,36-36.972,34.54
			C339.086,162.447,314.274,160.014,312.815,126.933z"/>
		<rect x="318.775" y="130.582" fill="#FFFFFF" width="51.566" height="7.298"/>
		<path fill="#EF8031" d="M334.98,155.786c0,0-1.943-9.403,8.434-10.702c0,0,6.231,0.133,6.656,10.714c0,0-10.183-1.824-15.09,0.122
			"/>
		<g>
			<path stroke="#000000" stroke-miterlimit="10" d="M329.012,100.004c0,2.212-1.797,4.008-4.014,4.008
				c-2.212,0-4.009-1.796-4.009-4.008c0-2.216,1.797-4.011,4.009-4.011C327.215,95.994,329.012,97.789,329.012,100.004z"/>
			<circle fill="none" stroke="#000000" stroke-miterlimit="10" cx="325" cy="100.001" r="6.973"/>
		</g>
		<g>
			<path stroke="#000000" stroke-miterlimit="10" d="M364.969,100.774c0,2.212-1.797,4.008-4.013,4.008
				c-2.212,0-4.01-1.796-4.01-4.008c0-2.215,1.798-4.012,4.01-4.012C363.172,96.763,364.969,98.56,364.969,100.774z"/>
			<circle fill="none" stroke="#000000" stroke-miterlimit="10" cx="360.958" cy="100.772" r="6.973"/>
		</g>
		<path fill="#F15A29" d="M327.333,116.821c0,2.602-2.107,4.707-4.707,4.707h-13.45c-2.601,0-4.707-2.105-4.707-4.707l0,0
			c0-2.6,2.106-4.707,4.707-4.707h13.45C325.225,112.114,327.333,114.221,327.333,116.821L327.333,116.821z"/>
		<path fill="#F15A29" d="M380.696,115.777c0,2.601-2.107,4.707-4.707,4.707h-13.45c-2.6,0-4.707-2.106-4.707-4.707l0,0
			c0-2.6,2.107-4.707,4.707-4.707h13.45C378.589,111.07,380.696,113.178,380.696,115.777L380.696,115.777z"/>
		
			<text transform="matrix(1 4.600799e-004 -4.600799e-004 1 1401.6201 132.8896)" fill="#58595B" font-family="'Arial-BoldMT'" font-size="60">9-13 mo.</text>
	</g>
	<g id="central_x5F_incisor_1_">
		<path fill="#FFFFFF" stroke="#6D6E71" stroke-width="6" stroke-miterlimit="10" d="M400.318,51.768
			c0,0-1.296-20.754,50.593-22.053h36.323c0,0,18.162-6.485,18.162,31.136c0,0-3.892,66.16-12.973,77.836
			c-9.081,11.675-41.513,28.54-66.161,0C426.263,138.687,411.994,147.765,400.318,51.768z"/>
		<path fill="#FFFFFF" stroke="#6D6E71" stroke-width="6" stroke-miterlimit="10" d="M514.101,68.878c0,0-3.313-48,31.715-38.919
			c0,0,40.213-3.585,57.08-1.144c0,0,23.35-1.45,7.781,76.387c0,0-2.592,40.213-37.618,49.295c0,0-16.865,10.378-36.324-16.865
			C536.734,137.632,525.197,132.444,514.101,68.878z"/>
		<circle fill="#F9C3D2" cx="428.948" cy="111.919" r="8.756"/>
		<circle fill="#F9C3D2" cx="486" cy="109" r="8.756"/>
		<circle stroke="#000000" stroke-miterlimit="10" cx="445.157" cy="99.755" r="4.011"/>
		<circle stroke="#000000" stroke-miterlimit="10" cx="467.125" cy="98.685" r="4.012"/>
		<path fill="none" stroke="#000000" stroke-width="4" stroke-miterlimit="10" d="M457.92,120.309c0,0,8.107-10.377,12.648,0.325
			c0,0,0.65,3.893-3.567,4.865c0,0,7.784,7.458,1.622,9.404c0,0-5.514,2.595-9.73-4.217"/>
		
			<line fill="none" stroke="#000000" stroke-width="4" stroke-miterlimit="10" x1="537.774" y1="104.121" x2="552.044" y2="104.121"/>
		
			<line fill="none" stroke="#000000" stroke-width="4" stroke-miterlimit="10" x1="578.591" y1="105.104" x2="592.862" y2="105.104"/>
		
			<line fill="none" stroke="#000000" stroke-width="4" stroke-miterlimit="10" x1="561.774" y1="129.121" x2="576.044" y2="129.121"/>
		
			<text transform="matrix(0.9999 -0.0107 0.0107 0.9999 1305.6621 47.0874)" fill="#58595B" font-family="'Arial-BoldMT'" font-size="60">8-12 mo.</text>
	</g>
</g>
</svg>
