<?xml version="1.0" encoding="utf-8"?>
<!-- Generator: Adobe Illustrator 16.0.0, SVG Export Plug-In . SVG Version: 6.00 Build 0)  -->
<!DOCTYPE svg PUBLIC "-//W3C//DTD SVG 1.1//EN" "http://www.w3.org/Graphics/SVG/1.1/DTD/svg11.dtd">
<svg version="1.1" id="Layer_1" xmlns="http://www.w3.org/2000/svg" xmlns:xlink="http://www.w3.org/1999/xlink" x="0px" y="0px"
	 width="1024px" height="1024px" viewBox="0 0 1024 1024" enable-background="new 0 0 1024 1024" xml:space="preserve">
<g id="Layer_2">
	<path fill="#F7A499" d="M92.111,580.089c0,0,60.769-54.66,139.493-11.999c0,0-58.738,330.48,300.205,318.281
		c0,0,277.124,13.34,257.769-312.281c0,0,116.438-43.629,149.992,5.999c0,0,84.104,396.867-424.371,418.634
		c0,0-238.752-6.964-339.416-122.76C75.118,760.167,81.786,679.344,92.111,580.089z"/>
	<path fill="#F7A499" d="M90.61,467.961c0,0,60.769,54.66,139.493,11.999c0,0-58.738-330.48,300.204-318.281
		c0,0,277.125-13.34,257.769,312.281c0,0,116.438,43.629,149.992-5.999c0,0,84.104-396.867-424.371-418.634
		c0,0-238.752,6.964-339.415,122.76C73.617,287.883,80.285,368.706,90.61,467.961z"/>
	<path fill="#F7996A" d="M374.592,449.09c0,0,53.997-77.996,118.494,0c0,0,30,41.998,71.997,0c0,0,40.498-65.997,97.495,0
		c56.997,65.998-6,220.489-118.494,221.989C431.589,672.579,308.596,545.086,374.592,449.09z"/>
	<path fill="#EC675D" d="M119.878,632.315c0,0,7.5-73.496,76.496-37.498c0,0-5.095,345.37,318.716,335.752
		c0,0,361.482-3,313.484-326.984c0,0,47.729-33.135,77.996,6c0,0,67.226,351.817-391.48,368.981c0,0-211.56-10.913-302.371-102.227
		C121.909,785.028,110.563,710.584,119.878,632.315z"/>
	<path fill="#EC675D" d="M117.87,418.652c0,0,7.5,73.496,76.496,37.498c0,0-5.095-345.371,318.716-335.752
		c0,0,361.482,3,313.484,326.984c0,0,47.729,33.135,77.996-6c0,0,67.226-351.817-391.48-368.981c0,0-211.56,10.913-302.371,102.226
		C119.901,265.939,108.556,340.383,117.87,418.652z"/>
</g>
</svg>
